{
	"asset":{
		"generator":"Khronos glTF Blender I/O v4.2.70",
		"version":"2.0"
	},
	"extensionsUsed":[
		"KHR_materials_emissive_strength"
	],
	"scene":0,
	"scenes":[
		{
			"name":"Scene",
			"nodes":[
				11
			]
		}
	],
	"nodes":[
		{
			"mesh":0,
			"name":"court_Black Tribune_0"
		},
		{
			"mesh":1,
			"name":"court_court_0"
		},
		{
			"mesh":2,
			"name":"court_gray metalic_0"
		},
		{
			"mesh":3,
			"name":"court_gray metalic_0.001"
		},
		{
			"mesh":4,
			"name":"court_kale diregi_0",
			"scale":[
				1,
				1,
				4
			]
		},
		{
			"mesh":5,
			"name":"court_proof_0"
		},
		{
			"mesh":6,
			"name":"court_Red Tribune_0"
		},
		{
			"mesh":7,
			"name":"court_spot light_0"
		},
		{
			"children":[
				0,
				1,
				2,
				3,
				4,
				5,
				6,
				7
			],
			"name":"court"
		},
		{
			"children":[
				8
			],
			"name":"RootNode"
		},
		{
			"children":[
				9
			],
			"name":"a80c5c80060b4a22bfe2f6668c116a44.fbx",
			"rotation":[
				0.70710688829422,
				0,
				0,
				0.7071066498756409
			]
		},
		{
			"children":[
				10
			],
			"name":"Sketchfab_model",
			"rotation":[
				-0.70710688829422,
				0,
				0,
				0.7071066498756409
			]
		}
	],
	"materials":[
		{
			"doubleSided":true,
			"name":"Black_Tribune",
			"pbrMetallicRoughness":{
				"baseColorFactor":[
					0.002579469932243228,
					0.002579469932243228,
					0.002579469932243228,
					1
				],
				"metallicFactor":0,
				"roughnessFactor":0.9994232058525085
			}
		},
		{
			"doubleSided":true,
			"name":"court",
			"pbrMetallicRoughness":{
				"baseColorTexture":{
					"index":0
				},
				"metallicFactor":0
			}
		},
		{
			"doubleSided":true,
			"name":"gray_metalic",
			"pbrMetallicRoughness":{
				"baseColorFactor":[
					0.5840790271759033,
					0.5840790271759033,
					0.5840790271759033,
					1
				],
				"metallicFactor":0.43123939633369446,
				"roughnessFactor":0.14476235210895538
			}
		},
		{
			"doubleSided":true,
			"name":"kale_diregi",
			"pbrMetallicRoughness":{
				"baseColorTexture":{
					"index":1
				},
				"metallicFactor":0,
				"roughnessFactor":0.9608601927757263
			}
		},
		{
			"doubleSided":true,
			"name":"proof",
			"pbrMetallicRoughness":{
				"baseColorFactor":[
					0.23955200612545013,
					0.23955200612545013,
					0.23955200612545013,
					1
				],
				"metallicFactor":0,
				"roughnessFactor":0.9464345574378967
			}
		},
		{
			"doubleSided":true,
			"name":"Red_Tribune",
			"pbrMetallicRoughness":{
				"baseColorFactor":[
					0.800000011920929,
					0.0016404100460931659,
					0.04362050071358681,
					1
				],
				"metallicFactor":0,
				"roughnessFactor":0.9610024094581604
			}
		},
		{
			"doubleSided":true,
			"emissiveFactor":[
				1,
				1,
				1
			],
			"extensions":{
				"KHR_materials_emissive_strength":{
					"emissiveStrength":5.687974452972412
				}
			},
			"name":"spot_light",
			"pbrMetallicRoughness":{
				"baseColorTexture":{
					"index":2
				},
				"metallicFactor":0,
				"roughnessFactor":0.8211145401000977
			}
		}
	],
	"meshes":[
		{
			"name":"court_Black Tribune_0",
			"primitives":[
				{
					"attributes":{
						"POSITION":0,
						"NORMAL":1,
						"TEXCOORD_0":2
					},
					"indices":3,
					"material":0
				}
			]
		},
		{
			"name":"court_court_0",
			"primitives":[
				{
					"attributes":{
						"POSITION":4,
						"NORMAL":5,
						"TEXCOORD_0":6
					},
					"indices":7,
					"material":1
				}
			]
		},
		{
			"name":"court_gray metalic_0",
			"primitives":[
				{
					"attributes":{
						"POSITION":8,
						"NORMAL":9,
						"TEXCOORD_0":10
					},
					"indices":11,
					"material":2
				}
			]
		},
		{
			"name":"court_gray metalic_0.001",
			"primitives":[
				{
					"attributes":{
						"POSITION":12,
						"NORMAL":13,
						"TEXCOORD_0":14
					},
					"indices":15,
					"material":2
				}
			]
		},
		{
			"name":"court_kale diregi_0",
			"primitives":[
				{
					"attributes":{
						"POSITION":16,
						"NORMAL":17,
						"TEXCOORD_0":18
					},
					"indices":19,
					"material":3
				}
			]
		},
		{
			"name":"court_proof_0",
			"primitives":[
				{
					"attributes":{
						"POSITION":20,
						"NORMAL":21,
						"TEXCOORD_0":22
					},
					"indices":23,
					"material":4
				}
			]
		},
		{
			"name":"court_Red Tribune_0",
			"primitives":[
				{
					"attributes":{
						"POSITION":24,
						"NORMAL":25,
						"TEXCOORD_0":26
					},
					"indices":27,
					"material":5
				}
			]
		},
		{
			"name":"court_spot light_0",
			"primitives":[
				{
					"attributes":{
						"POSITION":28,
						"NORMAL":29,
						"TEXCOORD_0":30
					},
					"indices":31,
					"material":6
				}
			]
		}
	],
	"textures":[
		{
			"sampler":0,
			"source":0
		},
		{
			"sampler":0,
			"source":1
		},
		{
			"sampler":0,
			"source":1
		}
	],
	"images":[
		{
			"mimeType":"image/png",
			"name":"court_baseColor",
			"uri":"court_baseColor.png"
		},
		{
			"mimeType":"image/png",
			"name":"kale_diregi_baseColor",
			"uri":"kale_diregi_baseColor.png"
		}
	],
	"accessors":[
		{
			"bufferView":0,
			"componentType":5126,
			"count":36289,
			"max":[
				10.926082611083984,
				10.005719184875488,
				-7.991937637329102
			],
			"min":[
				-10.873920440673828,
				-0.001227695494890213,
				-19.676326751708984
			],
			"type":"VEC3"
		},
		{
			"bufferView":1,
			"componentType":5126,
			"count":36289,
			"type":"VEC3"
		},
		{
			"bufferView":2,
			"componentType":5126,
			"count":36289,
			"type":"VEC2"
		},
		{
			"bufferView":3,
			"componentType":5123,
			"count":82626,
			"type":"SCALAR"
		},
		{
			"bufferView":4,
			"componentType":5126,
			"count":4,
			"max":[
				11.25,
				0.011298101395368576,
				6.5
			],
			"min":[
				-11.25,
				0.011298101395368576,
				-6.5
			],
			"type":"VEC3"
		},
		{
			"bufferView":5,
			"componentType":5126,
			"count":4,
			"type":"VEC3"
		},
		{
			"bufferView":6,
			"componentType":5126,
			"count":4,
			"type":"VEC2"
		},
		{
			"bufferView":7,
			"componentType":5123,
			"count":6,
			"type":"SCALAR"
		},
		{
			"bufferView":8,
			"componentType":5126,
			"count":84140,
			"max":[
				13.25,
				10.163147926330566,
				8
			],
			"min":[
				-13.25,
				0,
				-8
			],
			"type":"VEC3"
		},
		{
			"bufferView":9,
			"componentType":5126,
			"count":84140,
			"type":"VEC3"
		},
		{
			"bufferView":10,
			"componentType":5126,
			"count":84140,
			"type":"VEC2"
		},
		{
			"bufferView":11,
			"componentType":5125,
			"count":100524,
			"type":"SCALAR"
		},
		{
			"bufferView":12,
			"componentType":5126,
			"count":37144,
			"max":[
				13.066864013671875,
				3.650001049041748,
				7.873641490936279
			],
			"min":[
				-13.071375846862793,
				0.6500003337860107,
				-7.8121843338012695
			],
			"type":"VEC3"
		},
		{
			"bufferView":13,
			"componentType":5126,
			"count":37144,
			"type":"VEC3"
		},
		{
			"bufferView":14,
			"componentType":5126,
			"count":37144,
			"type":"VEC2"
		},
		{
			"bufferView":15,
			"componentType":5123,
			"count":42567,
			"type":"SCALAR"
		},
		{
			"bufferView":16,
			"componentType":5126,
			"count":71032,
			"max":[
				11.498424530029297,
				1.6528862714767456,
				1.8363019227981567
			],
			"min":[
				-11.60880184173584,
				0.008043806999921799,
				-1.741141676902771
			],
			"type":"VEC3"
		},
		{
			"bufferView":17,
			"componentType":5126,
			"count":71032,
			"type":"VEC3"
		},
		{
			"bufferView":18,
			"componentType":5126,
			"count":71032,
			"type":"VEC2"
		},
		{
			"bufferView":19,
			"componentType":5125,
			"count":91884,
			"type":"SCALAR"
		},
		{
			"bufferView":20,
			"componentType":5126,
			"count":308,
			"max":[
				11.026642799377441,
				10.317551612854004,
				-8.874839782714844
			],
			"min":[
				-10.973356246948242,
				8.173198699951172,
				-19.211475372314453
			],
			"type":"VEC3"
		},
		{
			"bufferView":21,
			"componentType":5126,
			"count":308,
			"type":"VEC3"
		},
		{
			"bufferView":22,
			"componentType":5126,
			"count":308,
			"type":"VEC2"
		},
		{
			"bufferView":23,
			"componentType":5123,
			"count":456,
			"type":"SCALAR"
		},
		{
			"bufferView":24,
			"componentType":5126,
			"count":46356,
			"max":[
				9.980304718017578,
				6.150643348693848,
				-8.922083854675293
			],
			"min":[
				-9.972516059875488,
				1.1036514043807983,
				-18.477386474609375
			],
			"type":"VEC3"
		},
		{
			"bufferView":25,
			"componentType":5126,
			"count":46356,
			"type":"VEC3"
		},
		{
			"bufferView":26,
			"componentType":5126,
			"count":46356,
			"type":"VEC2"
		},
		{
			"bufferView":27,
			"componentType":5123,
			"count":93600,
			"type":"SCALAR"
		},
		{
			"bufferView":28,
			"componentType":5126,
			"count":56,
			"max":[
				12.056897163391113,
				9.665260314941406,
				6.977099418640137
			],
			"min":[
				-12.076397895812988,
				8.155685424804688,
				-7.072474002838135
			],
			"type":"VEC3"
		},
		{
			"bufferView":29,
			"componentType":5126,
			"count":56,
			"type":"VEC3"
		},
		{
			"bufferView":30,
			"componentType":5126,
			"count":56,
			"type":"VEC2"
		},
		{
			"bufferView":31,
			"componentType":5123,
			"count":96,
			"type":"SCALAR"
		}
	],
	"bufferViews":[
		{
			"buffer":0,
			"byteLength":435468,
			"byteOffset":0,
			"target":34962
		},
		{
			"buffer":0,
			"byteLength":435468,
			"byteOffset":435468,
			"target":34962
		},
		{
			"buffer":0,
			"byteLength":290312,
			"byteOffset":870936,
			"target":34962
		},
		{
			"buffer":0,
			"byteLength":165252,
			"byteOffset":1161248,
			"target":34963
		},
		{
			"buffer":0,
			"byteLength":48,
			"byteOffset":1326500,
			"target":34962
		},
		{
			"buffer":0,
			"byteLength":48,
			"byteOffset":1326548,
			"target":34962
		},
		{
			"buffer":0,
			"byteLength":32,
			"byteOffset":1326596,
			"target":34962
		},
		{
			"buffer":0,
			"byteLength":12,
			"byteOffset":1326628,
			"target":34963
		},
		{
			"buffer":0,
			"byteLength":1009680,
			"byteOffset":1326640,
			"target":34962
		},
		{
			"buffer":0,
			"byteLength":1009680,
			"byteOffset":2336320,
			"target":34962
		},
		{
			"buffer":0,
			"byteLength":673120,
			"byteOffset":3346000,
			"target":34962
		},
		{
			"buffer":0,
			"byteLength":402096,
			"byteOffset":4019120,
			"target":34963
		},
		{
			"buffer":0,
			"byteLength":445728,
			"byteOffset":4421216,
			"target":34962
		},
		{
			"buffer":0,
			"byteLength":445728,
			"byteOffset":4866944,
			"target":34962
		},
		{
			"buffer":0,
			"byteLength":297152,
			"byteOffset":5312672,
			"target":34962
		},
		{
			"buffer":0,
			"byteLength":85134,
			"byteOffset":5609824,
			"target":34963
		},
		{
			"buffer":0,
			"byteLength":852384,
			"byteOffset":5694960,
			"target":34962
		},
		{
			"buffer":0,
			"byteLength":852384,
			"byteOffset":6547344,
			"target":34962
		},
		{
			"buffer":0,
			"byteLength":568256,
			"byteOffset":7399728,
			"target":34962
		},
		{
			"buffer":0,
			"byteLength":367536,
			"byteOffset":7967984,
			"target":34963
		},
		{
			"buffer":0,
			"byteLength":3696,
			"byteOffset":8335520,
			"target":34962
		},
		{
			"buffer":0,
			"byteLength":3696,
			"byteOffset":8339216,
			"target":34962
		},
		{
			"buffer":0,
			"byteLength":2464,
			"byteOffset":8342912,
			"target":34962
		},
		{
			"buffer":0,
			"byteLength":912,
			"byteOffset":8345376,
			"target":34963
		},
		{
			"buffer":0,
			"byteLength":556272,
			"byteOffset":8346288,
			"target":34962
		},
		{
			"buffer":0,
			"byteLength":556272,
			"byteOffset":8902560,
			"target":34962
		},
		{
			"buffer":0,
			"byteLength":370848,
			"byteOffset":9458832,
			"target":34962
		},
		{
			"buffer":0,
			"byteLength":187200,
			"byteOffset":9829680,
			"target":34963
		},
		{
			"buffer":0,
			"byteLength":672,
			"byteOffset":10016880,
			"target":34962
		},
		{
			"buffer":0,
			"byteLength":672,
			"byteOffset":10017552,
			"target":34962
		},
		{
			"buffer":0,
			"byteLength":448,
			"byteOffset":10018224,
			"target":34962
		},
		{
			"buffer":0,
			"byteLength":192,
			"byteOffset":10018672,
			"target":34963
		}
	],
	"samplers":[
		{
			"magFilter":9729,
			"minFilter":9987
		}
	],
	"buffers":[
		{
			"byteLength":10018864,
			"uri":"true_football_court.bin"
		}
	]
}
